<svg width="74" height="74" viewBox="0 0 74 74" fill="none" xmlns="http://www.w3.org/2000/svg">
<path opacity="0.5" d="M60.1243 23.125H10.791C10.791 20.0787 10.8311 18.4815 11.4632 17.242C12.0544 16.0817 12.9977 15.1384 14.158 14.5472C15.4777 13.875 17.2043 13.875 20.6577 13.875H50.2577C53.711 13.875 55.4377 13.875 56.7574 14.5472C57.9176 15.1384 58.861 16.0817 59.4522 17.242C60.0843 18.4815 60.1213 20.0787 60.1243 23.125Z" fill="white"/>
<path fill-rule="evenodd" clip-rule="evenodd" d="M50.3502 11.5625H20.5652C18.9156 11.5625 17.5435 11.5625 16.4181 11.655C12.0675 12.0096 8.91943 15.244 8.57102 19.5021C8.47852 20.6275 8.47852 22.0057 8.47852 23.6492V50.3508C8.47852 52.0004 8.47852 53.3725 8.57102 54.4979C8.66352 55.6696 8.87318 56.7672 9.40352 57.8063C10.2165 59.4021 11.5139 60.6995 13.1097 61.5125C14.1488 62.0428 15.2464 62.2525 16.4181 62.345C17.5435 62.4375 18.9156 62.4375 20.5621 62.4375H50.3533C51.9998 62.4375 53.3749 62.4375 54.4973 62.345C55.6689 62.2525 56.7666 62.0428 57.8057 61.5125C58.3301 61.2222 58.7214 60.7397 58.897 60.1665C59.0726 59.5934 59.0187 58.9744 58.7468 58.4402C58.4749 57.906 58.0062 57.4983 57.4395 57.3029C56.8728 57.1076 56.2523 57.1399 55.709 57.3932C55.4284 57.535 55.006 57.6645 54.118 57.7354C53.2084 57.8094 52.0213 57.8125 50.2577 57.8125H20.6577C18.894 57.8125 17.7069 57.8125 16.7943 57.7354C15.9093 57.6645 15.4869 57.535 15.2094 57.3932C14.483 57.0234 13.8926 56.433 13.5228 55.7066C13.381 55.4291 13.2515 55.0067 13.1806 54.1187C13.1066 53.2091 13.1035 52.022 13.1035 50.2583V25.4375H57.7687C57.7933 26.7222 57.8077 28.0069 57.8118 29.2917C57.8118 29.905 58.0555 30.4932 58.4892 30.9268C58.9228 31.3605 59.511 31.6042 60.1243 31.6042C60.7377 31.6042 61.3259 31.3605 61.7595 30.9268C62.1932 30.4932 62.4368 29.905 62.4368 29.2917C62.4368 28.7161 62.4338 28.1426 62.4276 27.5712C62.406 25.5053 62.3443 21.9996 62.147 19.499C61.7986 15.1083 58.8417 12.0065 54.4973 11.655C53.3718 11.5625 51.9998 11.5625 50.3502 11.5625ZM57.6022 20.8125C57.4542 18.3551 56.745 16.4773 54.118 16.2646C53.2084 16.1906 52.0213 16.1875 50.2577 16.1875H20.6577C18.894 16.1875 17.7069 16.1875 16.7943 16.2646C14.2721 16.4712 13.2083 18.3612 13.1282 20.8125H57.6022Z" fill="white"/>
<path d="M20.041 28.5205C19.4277 28.5205 18.8395 28.7641 18.4058 29.1978C17.9722 29.6315 17.7285 30.2197 17.7285 30.833C17.7285 31.4463 17.9722 32.0345 18.4058 32.4682C18.8395 32.9019 19.4277 33.1455 20.041 33.1455H38.541C39.1543 33.1455 39.7425 32.9019 40.1762 32.4682C40.6099 32.0345 40.8535 31.4463 40.8535 30.833C40.8535 30.2197 40.6099 29.6315 40.1762 29.1978C39.7425 28.7641 39.1543 28.5205 38.541 28.5205H20.041Z" fill="white"/>
<path fill-rule="evenodd" clip-rule="evenodd" d="M52.4174 31.6045C50.8684 31.6051 49.3406 31.9648 47.9541 32.6553C46.5675 33.3458 45.3599 34.3484 44.4261 35.5843C43.4922 36.8201 42.8576 38.2557 42.5721 39.7781C42.2866 41.3006 42.3579 42.8685 42.7804 44.3588C43.2029 45.849 43.9652 47.2211 45.0073 48.3671C46.0495 49.5131 47.3431 50.4019 48.7866 50.9638C50.2301 51.5256 51.7842 51.7451 53.3269 51.6051C54.8696 51.4651 56.3588 50.9694 57.6776 50.1569L61.5749 54.0512C61.7866 54.2784 62.0419 54.4606 62.3256 54.587C62.6092 54.7134 62.9155 54.7813 63.226 54.7868C63.5365 54.7923 63.8449 54.7352 64.1328 54.6189C64.4208 54.5026 64.6823 54.3295 64.9019 54.1099C65.1215 53.8903 65.2946 53.6287 65.4109 53.3407C65.5273 53.0528 65.5844 52.7444 65.5789 52.4339C65.5734 52.1234 65.5055 51.8172 65.3791 51.5335C65.2527 51.2498 65.0704 50.9945 64.8432 50.7828L60.949 46.8855C61.8854 45.3671 62.3995 43.6263 62.4382 41.8429C62.477 40.0594 62.0389 38.2979 61.1693 36.7404C60.2997 35.1828 59.03 33.8856 57.4915 32.9827C55.953 32.0799 54.2013 31.6041 52.4174 31.6045ZM47.0216 41.6253C47.0216 40.1943 47.5901 38.8218 48.602 37.8099C49.6139 36.798 50.9863 36.2295 52.4174 36.2295C53.8485 36.2295 55.2209 36.798 56.2328 37.8099C57.2447 38.8218 57.8132 40.1943 57.8132 41.6253C57.8132 43.0564 57.2447 44.4288 56.2328 45.4408C55.2209 46.4527 53.8485 47.0212 52.4174 47.0212C50.9863 47.0212 49.6139 46.4527 48.602 45.4408C47.5901 44.4288 47.0216 43.0564 47.0216 41.6253Z" fill="white"/>
<path d="M20.041 34.6875C19.4277 34.6875 18.8395 34.9311 18.4058 35.3648C17.9722 35.7985 17.7285 36.3867 17.7285 37C17.7285 37.6133 17.9722 38.2015 18.4058 38.6352C18.8395 39.0689 19.4277 39.3125 20.041 39.3125H29.291C29.9043 39.3125 30.4925 39.0689 30.9262 38.6352C31.3599 38.2015 31.6035 37.6133 31.6035 37C31.6035 36.3867 31.3599 35.7985 30.9262 35.3648C30.4925 34.9311 29.9043 34.6875 29.291 34.6875H20.041ZM20.041 43.9375C19.4277 43.9375 18.8395 44.1811 18.4058 44.6148C17.9722 45.0485 17.7285 45.6367 17.7285 46.25C17.7285 46.8633 17.9722 47.4515 18.4058 47.8852C18.8395 48.3189 19.4277 48.5625 20.041 48.5625H35.4577C36.071 48.5625 36.6592 48.3189 37.0929 47.8852C37.5265 47.4515 37.7702 46.8633 37.7702 46.25C37.7702 45.6367 37.5265 45.0485 37.0929 44.6148C36.6592 44.1811 36.071 43.9375 35.4577 43.9375H20.041ZM20.041 50.1042C19.4277 50.1042 18.8395 50.3478 18.4058 50.7815C17.9722 51.2152 17.7285 51.8034 17.7285 52.4167C17.7285 53.03 17.9722 53.6182 18.4058 54.0519C18.8395 54.4855 19.4277 54.7292 20.041 54.7292H29.291C29.9043 54.7292 30.4925 54.4855 30.9262 54.0519C31.3599 53.6182 31.6035 53.03 31.6035 52.4167C31.6035 51.8034 31.3599 51.2152 30.9262 50.7815C30.4925 50.3478 29.9043 50.1042 29.291 50.1042H20.041Z" fill="white"/>
</svg>
